<svg width="96" height="20" fill="none" xmlns="http://www.w3.org/2000/svg"><path d="M89.71 12.41 85.81.62h2.34l2.77 8.8 2.72-8.8H96l-3.88 11.8v6.42h-2.41v-6.43Z" fill="#444"/><path d="M1.4 17.86a7.27 7.27 0 0 1-1.13-4.41V7.08A7.39 7.39 0 0 1 1.4 2.64c.76-1.02 2.04-1.52 3.87-1.51 1.82 0 3.05.45 3.7 1.33a5.88 5.88 0 0 1 1.08 3.81v1.5H6.67V6.13c0-.42-.04-.85-.1-1.27-.05-.3-.18-.59-.39-.8a1.25 1.25 0 0 0-.93-.32c-.24-.04-.5 0-.7.12-.23.11-.4.3-.52.52-.22.6-.31 1.23-.28 1.86v8.08c-.04.64.07 1.28.32 1.87.12.21.29.38.5.5.2.1.44.15.68.12.23.03.46 0 .66-.12.2-.11.37-.3.48-.5.2-.6.28-1.24.25-1.87v-1.7H10v1.47a6.36 6.36 0 0 1-1 3.92c-.71.93-1.95 1.39-3.7 1.39-1.76 0-3.13-.51-3.9-1.55ZM14.62 1.37h3.86l3.25 17.83h-3.2l-.58-3.94h-2.7l-.65 3.91h-3.25l3.27-17.8Zm2.97 11.65-1.02-7.17-1.02 7.17h2.04ZM24.23 4.06h-2.64V1.37h8.72v2.69h-2.6v15.11h-3.5l.02-15.11Z" fill="#111"/><path d="M37.15 1.37h6.6v1.85h-4.22V9.1h3.43v1.76h-3.43v6.53h4.27v1.78h-6.65V1.37ZM45.72 1.37h1.62l4.88 11.83V1.37h1.98V19.2h-1.52L47.81 7.04v12.13h-2.02l-.07-17.8ZM56.83 1.37h6.6v1.85h-4.22V9.1h3.46v1.76h-3.43v6.53h4.24v1.78h-6.65V1.37ZM65.4 1.37h3.43c1.35-.11 2.7.28 3.8 1.11.8.74 1.2 1.95 1.2 3.62 0 2.26-.7 3.65-2.1 4.15l2.44 8.92h-2.31l-2.24-8.35h-1.84v8.35h-2.39V1.37Zm3.25 7.64c.78.08 1.56-.15 2.2-.64a3.07 3.07 0 0 0 .66-2.3 5.17 5.17 0 0 0-.24-1.7 1.62 1.62 0 0 0-.81-.92 3.73 3.73 0 0 0-1.67-.3h-1.05v5.9l.9-.04ZM77.04 17.86A8.13 8.13 0 0 1 76 13.3V7.37c-.03-1.14.1-2.29.4-3.4a3.8 3.8 0 0 1 1.42-2.04 4.65 4.65 0 0 1 2.73-.71 4.11 4.11 0 0 1 3.4 1.26A6.13 6.13 0 0 1 85 6.4v.66h-2.24v-.55c.02-.66-.03-1.32-.14-1.97A1.7 1.7 0 0 0 82 3.5c-.42-.26-.91-.38-1.4-.34a2 2 0 0 0-1.47.47 2.2 2.2 0 0 0-.63 1.26c-.1.7-.15 1.4-.14 2.11v6.61c-.06 1 .1 2.01.48 2.94a2.32 2.32 0 0 0 1.84.89 2.22 2.22 0 0 0 1.8-.97c.39-.98.56-2.04.5-3.1v-1.25H80.8v-1.76h4.31v8.81h-1.47l-.24-2.04a3.13 3.13 0 0 1-1.14 1.68c-.55.41-1.21.62-1.89.58a3.65 3.65 0 0 1-1.86-.32 3.82 3.82 0 0 1-1.48-1.21Z" fill="#444"/></svg>